<?xml version="1.0" encoding="iso-8859-1"?>
<!-- Generator: Adobe Illustrator 19.1.0, SVG Export Plug-In . SVG Version: 6.00 Build 0)  -->
<svg version="1.1" id="Capa_1" xmlns="http://www.w3.org/2000/svg" xmlns:xlink="http://www.w3.org/1999/xlink" x="0px" y="0px"
	viewBox="0 0 132.998 132.998" style="enable-background:new 0 0 132.998 132.998 ;" xml:space="preserve">
<g>
	<path fill="#ff540c" d="M48.382,70.05c-3.446,0-6.25-2.804-6.25-6.25c0-3.446,2.804-6.25,6.25-6.25s6.25,2.804,6.25,6.25
		C54.632,67.247,51.828,70.05,48.382,70.05z M48.382,60.55c-1.792,0-3.25,1.458-3.25,3.25c0,1.792,1.458,3.25,3.25,3.25
		s3.25-1.458,3.25-3.25C51.632,62.008,50.174,60.55,48.382,60.55z"/>
	<path fill="#ff540c" d="M44.412,95.457c-0.229,0-0.461-0.053-0.679-0.163c-0.738-0.375-1.033-1.278-0.657-2.017c0.583-1.148,1.246-2.2,2.087-3.309
		c0.677-0.892,1.364-1.686,2.092-2.526c1.924-2.221,3.912-4.517,5.791-8.862c4.865-11.245,5.976-26.448,6.786-37.549l0.095-1.299
		c0.914-12.411,6.11-12.565,6.72-12.556l-0.115,2.998c0,0,0.033,0.006,0.093,0c-0.837,0.086-3.134,2.012-3.705,9.778l-0.095,1.298
		c-0.826,11.314-1.958,26.811-7.024,38.521c-2.062,4.77-4.302,7.354-6.276,9.635c-0.695,0.803-1.352,1.561-1.97,2.375
		c-0.73,0.963-1.303,1.87-1.804,2.854C45.486,95.157,44.959,95.457,44.412,95.457z"/>
	<path fill="#ff540c" d="M54.423,114.675c-3.425,0-6.498-1.359-8.889-3.931c-2.839-3.054-4.343-7.482-4.023-11.845
		c0.178-2.418,0.874-4.639,2.07-6.603c0.434-0.707,1.357-0.931,2.062-0.5c0.708,0.431,0.932,1.354,0.501,2.062
		c-0.946,1.552-1.499,3.322-1.641,5.26c-0.256,3.494,0.981,7.166,3.229,9.583c1.261,1.356,3.445,2.973,6.691,2.973
		c3.838,0,6.956-1.424,9.018-4.12c0.04-0.05,1.243-1.563,1.541-3.604c0.12-0.819,0.889-1.389,1.701-1.268
		c0.82,0.12,1.388,0.882,1.268,1.701c-0.423,2.891-2.088,4.947-2.159,5.033C63.21,112.794,59.161,114.675,54.423,114.675z"/>
	<path fill="#ff540c" d="M41.924,25.092c-0.456,0-0.906-0.207-1.201-0.6c-0.497-0.663-0.362-1.603,0.3-2.1c12.646-9.486,25.085-8.585,25.606-8.545
		c0.826,0.068,1.44,0.792,1.373,1.618c-0.067,0.825-0.796,1.437-1.615,1.373l0,0c-0.116-0.01-11.87-0.817-23.563,7.955
		C42.552,24.994,42.237,25.092,41.924,25.092z"/>
	<path fill="#ff540c" d="M66.524,104.922c-2.97,0-6.086-1.415-8.338-3.784c-1.63-1.715-2.515-3.673-2.428-5.373
		c0.26-5.086,6.582-5.086,10.766-5.086c0.828,0,1.5,0.671,1.5,1.5s-0.672,1.5-1.5,1.5c-6.402,0-7.697,0.821-7.77,2.24
		c-0.044,0.856,0.572,2.064,1.606,3.153c1.31,1.378,3.616,2.85,6.163,2.85c0.828,0,1.5,0.671,1.5,1.5S67.352,104.922,66.524,104.922
		z"/>
	<path fill="#ff540c" d="M65.477,119.191c-10.876,0-13.325-5.263-13.427-5.494c-0.335-0.758,0.009-1.643,0.767-1.978
		c0.752-0.33,1.623,0.001,1.966,0.74c0.068,0.13,2.206,4.015,11.678,3.716c0.823-0.02,1.521,0.625,1.545,1.454
		c0.025,0.828-0.625,1.52-1.453,1.545C66.185,119.186,65.827,119.191,65.477,119.191z"/>
	<path fill="#ff540c" d="M26.619,111.82c-3.114,0-5.657-2.374-5.779-2.489C-5.826,85.167,0.592,65.919,0.878,65.112
		C6.949,46.584,21.619,32.23,22.24,31.628c10.377-10.729,16-10.661,17.163-10.497c1.343,0.064,2.593,0.599,3.53,1.512
		c0.996,0.971,1.522,2.248,1.482,3.596c-0.005,0.164-0.036,0.326-0.094,0.479l-0.566,1.521c-0.015,0.041-0.031,0.08-0.05,0.119
		l-3.686,7.774c-12.557,23.222-9.313,38.865-7.755,46.382c0.233,1.127,0.436,2.1,0.551,2.922c0.865,6.193,0.655,12.334,0.643,12.676
		c-0.009,0.285-0.173,5.53-0.639,8.886c-0.457,3.297-3.328,4.485-4.885,4.675C27.489,111.775,27.049,111.82,26.619,111.82z
		 M38.818,24.087c-0.767,0-5.493,0.395-14.456,9.662C24.18,33.926,9.563,48.24,3.718,66.08c-0.025,0.073-1.539,4.599,0.035,11.849
		c1.464,6.742,5.971,17.281,19.126,29.203c0.652,0.609,2.674,2.049,4.437,1.605c0.073-0.018,0.148-0.031,0.224-0.038
		c0.197-0.022,2.057-0.285,2.311-2.113c0.446-3.216,0.609-8.516,0.611-8.568c0-0.004,0-0.008,0-0.011
		c0.002-0.061,0.219-6.188-0.615-12.154c-0.102-0.724-0.295-1.653-0.518-2.729c-1.631-7.866-5.023-24.233,8.018-48.347l3.622-7.645
		l0.443-1.191c-0.04-0.422-0.238-0.824-0.571-1.148c-0.422-0.411-1.001-0.648-1.629-0.666c-0.095-0.003-0.188-0.015-0.28-0.035
		C38.93,24.09,38.914,24.087,38.818,24.087z"/>
	<path fill="#ff540c" d="M45.381,109.925c-0.328,0-0.659-0.107-0.936-0.329c-0.383-0.306-9.42-7.583-13.396-15.279
		c-0.38-0.736-0.092-1.641,0.645-2.021c0.732-0.38,1.641-0.093,2.021,0.644c3.686,7.134,12.515,14.242,12.604,14.313
		c0.647,0.517,0.752,1.461,0.235,2.108C46.257,109.732,45.821,109.925,45.381,109.925z"/>
	<path fill="#ff540c" d="M84.614,70.05c-3.446,0-6.25-2.804-6.25-6.25c0-3.446,2.804-6.25,6.25-6.25s6.25,2.804,6.25,6.25
		C90.864,67.247,88.06,70.05,84.614,70.05z M84.614,60.55c-1.792,0-3.25,1.458-3.25,3.25c0,1.792,1.458,3.25,3.25,3.25
		s3.25-1.458,3.25-3.25C87.864,62.008,86.406,60.55,84.614,60.55z"/>
	<path fill="#ff540c" d="M88.584,95.457c-0.547,0-1.074-0.3-1.338-0.821c-0.501-0.984-1.073-1.891-1.804-2.854c-0.618-0.815-1.274-1.573-1.97-2.376
		c-1.975-2.281-4.214-4.866-6.276-9.636c-5.066-11.71-6.198-27.206-7.024-38.521l-0.095-1.298c-0.571-7.766-2.868-9.691-3.705-9.778
		l0.035-1.499l-0.058-1.499c0.623-0.007,5.807,0.144,6.72,12.556l0.095,1.299c0.811,11.101,1.921,26.304,6.786,37.548
		c1.879,4.346,3.867,6.642,5.791,8.863c0.728,0.84,1.415,1.634,2.092,2.527c0.841,1.108,1.504,2.16,2.087,3.308
		c0.376,0.739,0.081,1.642-0.657,2.017C89.045,95.404,88.812,95.457,88.584,95.457z"/>
	<path fill="#ff540c" d="M78.573,114.675c-4.738,0-8.787-1.881-11.4-5.296c-0.039-0.046-1.704-2.103-2.127-4.993
		c-0.12-0.819,0.447-1.581,1.268-1.701c0.818-0.12,1.581,0.448,1.701,1.268c0.299,2.042,1.497,3.549,1.509,3.563
		c2.094,2.735,5.212,4.16,9.05,4.16c3.246,0,5.431-1.617,6.691-2.973c2.247-2.418,3.484-6.09,3.229-9.584
		c-0.142-1.938-0.694-3.708-1.641-5.26c-0.431-0.708-0.207-1.63,0.501-2.062c0.706-0.43,1.629-0.207,2.062,0.5
		c1.196,1.963,1.893,4.185,2.07,6.602c0.319,4.364-1.185,8.792-4.023,11.846C85.071,113.316,81.998,114.675,78.573,114.675z"/>
	<path fill="#ff540c" d="M91.072,25.092c-0.313,0-0.629-0.098-0.899-0.3c-11.695-8.773-23.447-7.964-23.563-7.955
		c-0.823,0.078-1.547-0.55-1.614-1.375c-0.065-0.825,0.547-1.547,1.372-1.615c0.521-0.041,12.959-0.941,25.606,8.545
		c0.662,0.497,0.797,1.437,0.3,2.1C91.978,24.885,91.528,25.092,91.072,25.092z"/>
	<path fill="#ff540c" d="M66.471,104.922c-0.828,0-1.5-0.671-1.5-1.5s0.672-1.5,1.5-1.5c2.547,0,4.854-1.472,6.163-2.85
		c1.034-1.089,1.65-2.297,1.606-3.153c-0.072-1.418-1.367-2.24-7.77-2.24c-0.828,0-1.5-0.671-1.5-1.5s0.672-1.5,1.5-1.5
		c4.184,0,10.506,0,10.766,5.086c0.087,1.7-0.798,3.658-2.428,5.373C72.557,103.508,69.441,104.922,66.471,104.922z"/>
	<path fill="#ff540c" d="M67.518,119.191c-0.35,0-0.707-0.005-1.075-0.017c-0.828-0.025-1.479-0.717-1.453-1.545
		c0.024-0.829,0.73-1.478,1.545-1.454c9.646,0.296,11.648-3.649,11.666-3.688c0.334-0.758,1.218-1.102,1.978-0.768
		c0.758,0.334,1.102,1.22,0.767,1.978C80.843,113.929,78.392,119.191,67.518,119.191z"/>
	<path fill="#ff540c" d="M106.378,111.82c-0.43,0-0.871-0.045-1.317-0.147c-1.557-0.19-4.428-1.378-4.885-4.675
		c-0.466-3.356-0.63-8.601-0.639-8.886c-0.013-0.342-0.223-6.483,0.643-12.675c0.115-0.823,0.317-1.796,0.551-2.923
		c1.559-7.517,4.802-23.16-7.719-46.311l-3.722-7.845c-0.019-0.039-0.035-0.079-0.05-0.119l-0.566-1.521
		c-0.058-0.153-0.089-0.315-0.094-0.479c-0.04-1.348,0.486-2.625,1.482-3.596c0.938-0.914,2.188-1.448,3.53-1.512
		c1.17-0.163,6.786-0.231,17.197,10.532c0.587,0.567,15.257,14.921,21.34,33.482c0.274,0.773,6.692,20.022-19.999,44.208
		C112.031,109.45,109.491,111.82,106.378,111.82z M92.028,27.131l3.658,7.715c13.005,24.043,9.612,40.411,7.981,48.276
		c-0.223,1.075-0.416,2.004-0.518,2.729c-0.835,5.976-0.617,12.092-0.615,12.153c0,0.003,0,0.007,0,0.011
		c0.002,0.053,0.165,5.352,0.611,8.568c0.254,1.828,2.113,2.09,2.324,2.114c0.065,0.007,0.146,0.021,0.21,0.037
		c2.11,0.527,4.388-1.561,4.411-1.582c25.251-22.882,19.262-40.861,19.198-41.041c-5.857-17.874-20.475-32.188-20.622-32.331
		c-9.885-10.219-14.61-9.685-14.66-9.681c-0.092,0.021-0.128,0.021-0.223,0.024c-0.628,0.018-1.207,0.255-1.629,0.666
		c-0.333,0.324-0.531,0.726-0.571,1.148L92.028,27.131z"/>
	<path fill="#ff540c" d="M87.615,109.925c-0.439,0-0.876-0.193-1.172-0.563c-0.518-0.647-0.413-1.591,0.234-2.108
		c0.088-0.071,8.924-7.19,12.604-14.313c0.381-0.736,1.289-1.023,2.021-0.644c0.736,0.38,1.024,1.285,0.645,2.021
		c-3.977,7.695-13.014,14.973-13.396,15.279C88.274,109.818,87.943,109.925,87.615,109.925z"/>
</g>
<g>
</g>
<g>
</g>
<g>
</g>
<g>
</g>
<g>
</g>
<g>
</g>
<g>
</g>
<g>
</g>
<g>
</g>
<g>
</g>
<g>
</g>
<g>
</g>
<g>
</g>
<g>
</g>
<g>
</g>
</svg>
