<svg xmlns="http://www.w3.org/2000/svg" xmlns:xlink="http://www.w3.org/1999/xlink" viewBox="0,0,256,256" width="64px" height="64px" fill-rule="nonzero"><g fill="#ff540c" fill-rule="nonzero" stroke="none" stroke-width="1" stroke-linecap="butt" stroke-linejoin="miter" stroke-miterlimit="10" stroke-dasharray="" stroke-dashoffset="0" font-family="none" font-weight="none" font-size="none" text-anchor="none" style="mix-blend-mode: normal"><g transform="scale(2,2)"><path d="M103.8,71c-1.6,0.1 -2.8,1.5 -2.8,3.1c-0.1,9.4 -7.7,16.9 -17,16.9c-6.6,0 -12.3,-3.8 -15.1,-9.2c-1.7,-3.4 -1.4,-7.5 0.9,-10.5l11.7,-15.6c2.4,-3.3 3.1,-7.6 1.5,-11.3c-1.8,-4 -5.7,-6.6 -10.1,-6.6h-17.5c-4.1,0 -8,2.1 -10,5.6c-2.2,3.9 -1.8,8.5 0.8,12l12,15.9c2.3,3.1 2.7,7.2 0.9,10.5c-2.8,5.4 -8.5,9.2 -15.1,9.2c-9.3,0 -16.9,-7.5 -17,-16.9c0,-1.6 -1.2,-3 -2.8,-3.1c-1.7,-0.1 -3.2,1.3 -3.2,3c0,12.7 10.3,23 23,23c8.6,0 16,-4.7 20,-11.7c4,7 11.4,11.7 20,11.7c12.7,0 23,-10.3 23,-23c0,-1.7 -1.5,-3.1 -3.2,-3z"></path></g></g></svg>